PathFileType	4	(X/Y/Z)	c:/Users/goper/Files/vsCode/490R/osim_files/A01/A01_Fast_01.trc
DataRate	CameraRate	NumFrames	NumMarkers	Units                	OrigDataRate	OrigDataStartFrame	OrigNumFrames
120.00	120.00	6	36	mm	120.0	1036	1381
                Frame#	Time	LPSIS			LASIS			LTH1			LTH2			LTH3			LTH4			LLFE			LMFE			LSH1			LSH2			LSH3			LSH4			LLMAL			LMMAL			LCAL			LMTP5			LTOE			LMTP1			RPSIS			RASIS			RTH1			RTH2			RTH3			RTH4			RLFE			RMFE			RSH1			RSH2			RSH3			RSH4			RLMAL			RMMAL			RCAL			RMTP1			RTOE			RMTP5		
		X1	Y1	Z1	X2	Y2	Z2	X3	Y3	Z3	X4	Y4	Z4	X5	Y5	Z5	X6	Y6	Z6	X7	Y7	Z7	X8	Y8	Z8	X9	Y9	Z9	X10	Y10	Z10	X11	Y11	Z11	X12	Y12	Z12	X13	Y13	Z13	X14	Y14	Z14	X15	Y15	Z15	X16	Y16	Z16	X17	Y17	Z17	X18	Y18	Z18	X19	Y19	Z19	X20	Y20	Z20	X21	Y21	Z21	X22	Y22	Z22	X23	Y23	Z23	X24	Y24	Z24	X25	Y25	Z25	X26	Y26	Z26	X27	Y27	Z27	X28	Y28	Z28	X29	Y29	Z29	X30	Y30	Z30	X31	Y31	Z31	X32	Y32	Z32	X33	Y33	Z33	X34	Y34	Z34	X35	Y35	Z35	X36	Y36	Z36

1036	8.62500	0.00000	0.00000	0.00000	-3450.49951	997.58142	397.54913	-3289.79980	681.04309	404.17175	-3291.70068	634.39777	394.94016	-3348.73901	675.54266	412.92047	-3342.85889	631.34106	398.63715	-3313.58008	513.00897	362.41486	0.00000	0.00000	0.00000	-3208.14429	383.42090	339.20374	-3187.55884	341.85001	340.01401	-3261.35034	351.28833	338.77155	-3232.75977	315.16122	337.06516	-3090.72559	114.63380	305.10071	-3081.91284	117.94958	215.74718	-3005.89795	108.08172	260.88882	-3214.02954	38.13411	320.16275	-3240.25195	58.33344	251.53525	0.00000	0.00000	0.00000	-3280.70508	1024.02234	130.45387	-3522.86230	975.93176	143.80617	-3521.12354	667.97919	25.41858	-3544.89355	632.00842	32.54886	-3573.93555	697.03119	43.05869	-3586.42334	653.97028	46.27816	-3626.38647	517.14795	83.73907	-3594.87964	514.89417	200.70705	-3606.66504	305.70102	37.04354	-3622.79785	262.10321	36.45618	-3663.26855	322.23776	49.14783	-3673.52368	278.28806	45.27771	-3704.09790	98.02219	59.84519	0.00000	0.00000	0.00000	-3647.20386	59.36029	96.03845	-3846.86108	105.28307	174.82774	-3876.07080	136.85727	137.15688	-3851.56787	88.67373	63.81403
1037	8.63333	0.00000	0.00000	0.00000	-3461.54028	996.15930	396.37146	-3299.32764	679.69208	403.49551	-3300.84521	632.83154	394.15729	-3358.10986	673.89594	412.20001	-3352.00439	629.71204	398.00296	-3321.79688	511.35730	362.13736	0.00000	0.00000	0.00000	-3214.53516	383.60556	339.07718	-3193.26221	342.50125	339.72202	-3267.22607	350.57489	338.67239	-3237.98877	314.97110	336.95578	-3092.61035	116.75814	304.88815	-3084.04980	120.29333	215.44449	-3007.78052	111.70702	260.53424	-3214.22046	38.04636	320.11383	-3240.69092	58.18387	251.54265	0.00000	0.00000	0.00000	-3291.73584	1023.20068	130.27443	-3534.14258	976.64270	142.77579	-3531.93433	666.52020	26.04762	-3555.62476	630.65424	33.76995	-3584.52075	695.93274	43.51367	-3596.73999	652.52271	47.30774	-3634.79541	515.40131	83.69736	-3605.70435	514.41327	199.82338	-3613.73413	303.86914	37.51614	-3629.65845	260.25690	36.78134	-3670.47949	320.01062	49.98108	-3680.39966	275.98016	46.03009	-3708.97192	95.85159	60.39262	-3708.03027	113.04281	148.09010	0.00000	0.00000	0.00000	-3849.83740	99.16584	176.53439	-3882.28418	133.60519	138.46077	-3855.55469	82.88383	65.50921
1038	8.64167	0.00000	0.00000	0.00000	-3472.66895	994.94159	395.01266	-3309.16602	678.38232	402.87903	-3310.60669	631.70734	393.75006	-3367.87744	672.41913	411.62799	-3361.62256	628.23187	397.45554	-3331.29907	510.00800	362.28040	0.00000	0.00000	0.00000	-3221.59619	384.09079	338.99219	-3199.55762	343.19763	339.90063	-3273.54395	350.15671	338.54782	-3243.72852	314.97626	336.89911	-3094.62573	119.24643	304.76468	-3086.07080	123.05952	215.20720	-3010.04224	115.93742	260.27371	-3214.21094	37.95375	319.98026	-3240.81934	57.96449	251.24034	0.00000	0.00000	0.00000	-3301.88672	1022.55914	129.96365	-3545.40723	977.48853	141.72536	-3541.80420	665.01379	26.21245	-3565.28491	629.19019	34.60965	-3594.39282	694.34271	43.82082	-3606.36060	650.76031	47.94136	-3642.78442	513.85730	83.04335	-3615.45239	513.78973	198.66544	-3621.05640	302.32510	37.74456	-3636.85669	258.78018	36.95974	-3677.96143	318.19186	50.58633	-3687.58545	274.10419	46.60117	-3713.55762	94.08945	60.80191	-3712.94263	110.94126	148.60803	-3662.36670	56.89126	98.05444	-3853.59009	92.63289	177.45235	-3888.20801	127.50851	139.70264	-3859.33057	76.81862	66.33618
1039	8.65000	0.00000	0.00000	0.00000	-3484.05981	993.91156	393.50024	-3319.28784	677.05713	402.22171	-3320.67456	630.53674	393.24615	-3378.04224	671.04547	411.05106	-3371.71948	626.87103	396.94293	-3341.12549	508.56274	362.39032	0.00000	0.00000	0.00000	-3228.87354	384.64911	338.97461	-3206.07251	344.10162	339.62506	-3279.85522	349.75046	337.75632	-3249.91479	315.15115	336.85287	-3097.23535	121.96743	304.72882	-3089.13452	126.12301	215.21356	-3012.58545	120.63583	260.04504	-3214.46338	37.94733	319.91388	-3241.49878	57.91314	251.22609	0.00000	0.00000	0.00000	-3312.11719	1022.15466	129.61224	-3556.26050	978.17792	140.64777	-3550.77319	663.93201	25.77555	-3573.41260	627.70862	34.87101	-3603.56714	692.58850	43.76799	-3615.13477	648.93262	48.12532	-3650.55640	512.76660	81.59359	-3623.65796	512.78931	197.73253	-3628.42578	301.44516	37.68158	-3644.16040	257.94589	36.83844	-3685.53369	317.00034	50.90393	-3694.92090	272.84006	46.86121	-3717.37231	92.98535	60.92461	-3718.09546	109.68047	148.81390	-3664.63208	58.13805	98.21352	-3858.06079	85.60814	177.42622	-3892.71533	116.81579	141.96913	-3863.77075	71.82053	65.76421
1040	8.65833	0.00000	0.00000	0.00000	-3495.51147	992.94977	391.90634	-3329.93115	675.88226	401.65240	-3331.16528	629.28577	392.93384	-3388.66553	669.73218	410.50836	-3382.24512	625.52710	396.64670	-3351.59351	507.24225	362.60651	0.00000	0.00000	0.00000	-3236.85449	385.31812	339.11420	-3213.37207	345.41006	339.73596	-3286.73608	349.82419	337.32001	-3255.87891	315.97049	336.08868	-3100.09473	125.23116	304.49695	-3092.35840	129.77917	215.12637	-3015.65576	126.04472	259.65073	-3214.79590	37.95469	319.84000	-3242.45850	57.66371	251.64293	0.00000	0.00000	0.00000	-3322.42480	1021.69098	129.31184	-3566.90576	978.87158	139.65762	-3558.41650	663.38513	25.09440	-3580.54932	626.90515	34.09386	-3611.88379	691.06854	43.11451	-3623.15479	647.86414	47.66854	-3658.52832	512.68646	79.52519	-3630.77612	511.65933	197.44690	-3635.55176	301.65463	37.43520	-3650.71240	258.01080	36.50561	-3692.97363	316.51990	50.67966	-3701.73804	272.19656	46.64405	-3720.48267	92.23264	60.83104	-3722.33179	108.77607	148.62044	-3666.55273	59.51434	98.23430	-3861.86230	79.10902	176.83310	-3896.00635	107.71548	139.86444	-3866.25854	64.70051	65.43135
1041	8.66667	0.00000	0.00000	0.00000	-3506.88940	992.28485	390.15872	-3340.21509	674.95416	401.14597	-3342.25269	628.08832	392.72675	-3399.61938	668.56207	410.18335	-3393.04199	624.21918	396.37915	-3362.19653	505.68930	362.79391	0.00000	0.00000	0.00000	-3245.43652	386.42438	339.14026	-3221.11108	346.90094	339.75623	-3295.00195	349.54849	337.46182	-3263.39062	316.91663	336.72903	-3103.26416	128.90167	304.18115	-3096.03027	133.94281	214.95746	-3019.13452	132.18692	259.21011	-3215.06885	37.89078	319.79520	-3243.17480	57.55113	251.68439	0.00000	0.00000	0.00000	-3332.04565	1021.63519	128.85216	-3577.24414	979.34338	138.66554	-3565.14258	663.90900	24.29457	-3586.68750	626.88660	32.44933	-3619.37207	690.51538	41.40388	-3630.01318	647.59595	46.56784	-3667.02979	513.55957	77.50689	-3637.32080	510.94318	197.31511	-3642.31665	302.69308	37.11035	-3656.80933	258.66302	36.03430	-3700.13647	316.46460	50.02989	-3708.12329	272.03000	46.01458	-3723.09106	91.81454	60.51405	-3726.01587	108.67690	148.10167	-3668.22144	60.73848	98.18038	-3863.63379	76.00426	176.45439	-3900.69531	101.24848	139.98457	-3868.49854	58.76733	64.78096
